<mxfile host="Electron" modified="2023-12-10T17:12:00.000Z" agent="Mozilla/5.0 (X11; Linux x86_64) AppleWebKit/537.36 (KHTML, like Gecko) draw.io/22.1.2 Chrome/114.0.5735.289 Electron/25.9.4 Safari/537.36" etag="v6jhX__txRUhRCAZhOUS" version="22.1.2" type="device">
  <diagram name="Seite-1" id="xg4kXX9ppPL5qplMYSFO">
    <mxGraphModel dx="1688" dy="703" grid="1" gridSize="10" guides="1" tooltips="1" connect="1" arrows="1" fold="1" page="1" pageScale="1" pageWidth="1654" pageHeight="1169" math="0" shadow="0">
      <root>
        <mxCell id="0" />
        <mxCell id="1" parent="0" />
        <mxCell id="Zh2uDtDI1wgxRoAc3K7q-1" value="" style="rounded=0;whiteSpace=wrap;html=1;fillColor=#f5f5f5;fontColor=#333333;strokeColor=#666666;" vertex="1" parent="1">
          <mxGeometry x="480" y="390" width="400" height="140" as="geometry" />
        </mxCell>
        <mxCell id="Zh2uDtDI1wgxRoAc3K7q-3" value="" style="html=1;verticalLabelPosition=bottom;verticalAlign=top;outlineConnect=0;shadow=0;dashed=0;shape=mxgraph.rack.hpe_aruba.switches.rj45_sfp;" vertex="1" parent="1">
          <mxGeometry x="500" y="480" width="40" height="30" as="geometry" />
        </mxCell>
        <mxCell id="Zh2uDtDI1wgxRoAc3K7q-4" value="" style="html=1;verticalLabelPosition=bottom;verticalAlign=top;outlineConnect=0;shadow=0;dashed=0;shape=mxgraph.rack.hpe_aruba.switches.rj45_sfp;" vertex="1" parent="1">
          <mxGeometry x="550" y="480" width="40" height="30" as="geometry" />
        </mxCell>
        <mxCell id="Zh2uDtDI1wgxRoAc3K7q-5" value="" style="html=1;verticalLabelPosition=bottom;verticalAlign=top;outlineConnect=0;shadow=0;dashed=0;shape=mxgraph.rack.hpe_aruba.switches.rj45_sfp;" vertex="1" parent="1">
          <mxGeometry x="650" y="480" width="40" height="30" as="geometry" />
        </mxCell>
        <mxCell id="Zh2uDtDI1wgxRoAc3K7q-7" value="" style="html=1;verticalLabelPosition=bottom;verticalAlign=top;outlineConnect=0;shadow=0;dashed=0;shape=mxgraph.rack.hpe_aruba.switches.rj45_sfp;" vertex="1" parent="1">
          <mxGeometry x="700" y="480" width="40" height="30" as="geometry" />
        </mxCell>
        <mxCell id="Zh2uDtDI1wgxRoAc3K7q-9" value="" style="html=1;verticalLabelPosition=bottom;verticalAlign=top;outlineConnect=0;shadow=0;dashed=0;shape=mxgraph.rack.hpe_aruba.switches.rj45_sfp;" vertex="1" parent="1">
          <mxGeometry x="600" y="480" width="40" height="30" as="geometry" />
        </mxCell>
        <mxCell id="Zh2uDtDI1wgxRoAc3K7q-13" value="" style="edgeStyle=orthogonalEdgeStyle;rounded=0;orthogonalLoop=1;jettySize=auto;html=1;endArrow=none;endFill=0;" edge="1" parent="1" source="Zh2uDtDI1wgxRoAc3K7q-12" target="Zh2uDtDI1wgxRoAc3K7q-3">
          <mxGeometry relative="1" as="geometry" />
        </mxCell>
        <mxCell id="Zh2uDtDI1wgxRoAc3K7q-14" value="" style="edgeStyle=orthogonalEdgeStyle;rounded=0;orthogonalLoop=1;jettySize=auto;html=1;endArrow=none;endFill=0;" edge="1" parent="1" source="Zh2uDtDI1wgxRoAc3K7q-12" target="Zh2uDtDI1wgxRoAc3K7q-9">
          <mxGeometry relative="1" as="geometry" />
        </mxCell>
        <mxCell id="Zh2uDtDI1wgxRoAc3K7q-12" value="" style="sketch=0;pointerEvents=1;shadow=0;dashed=0;html=1;strokeColor=none;fillColor=#005F4B;labelPosition=center;verticalLabelPosition=bottom;verticalAlign=top;align=center;outlineConnect=0;shape=mxgraph.veeam2.cpu;" vertex="1" parent="1">
          <mxGeometry x="750" y="400" width="54" height="50" as="geometry" />
        </mxCell>
        <mxCell id="Zh2uDtDI1wgxRoAc3K7q-15" value="" style="edgeStyle=orthogonalEdgeStyle;rounded=0;orthogonalLoop=1;jettySize=auto;html=1;endArrow=none;endFill=0;" edge="1" parent="1" source="Zh2uDtDI1wgxRoAc3K7q-12" target="Zh2uDtDI1wgxRoAc3K7q-5">
          <mxGeometry relative="1" as="geometry">
            <mxPoint x="590" y="450" as="sourcePoint" />
            <mxPoint x="630" y="490" as="targetPoint" />
          </mxGeometry>
        </mxCell>
        <mxCell id="Zh2uDtDI1wgxRoAc3K7q-16" value="" style="edgeStyle=orthogonalEdgeStyle;rounded=0;orthogonalLoop=1;jettySize=auto;html=1;endArrow=none;endFill=0;" edge="1" parent="1" source="Zh2uDtDI1wgxRoAc3K7q-12" target="Zh2uDtDI1wgxRoAc3K7q-4">
          <mxGeometry relative="1" as="geometry">
            <mxPoint x="597" y="450" as="sourcePoint" />
            <mxPoint x="630" y="490" as="targetPoint" />
          </mxGeometry>
        </mxCell>
        <mxCell id="Zh2uDtDI1wgxRoAc3K7q-17" value="" style="edgeStyle=orthogonalEdgeStyle;rounded=0;orthogonalLoop=1;jettySize=auto;html=1;endArrow=none;endFill=0;" edge="1" parent="1" source="Zh2uDtDI1wgxRoAc3K7q-12" target="Zh2uDtDI1wgxRoAc3K7q-7">
          <mxGeometry relative="1" as="geometry">
            <mxPoint x="607" y="460" as="sourcePoint" />
            <mxPoint x="640" y="500" as="targetPoint" />
          </mxGeometry>
        </mxCell>
        <mxCell id="Zh2uDtDI1wgxRoAc3K7q-20" value="ASIC with vendor specifiv Microcode" style="text;html=1;strokeColor=none;fillColor=none;align=center;verticalAlign=middle;whiteSpace=wrap;rounded=0;" vertex="1" parent="1">
          <mxGeometry x="750" y="470" width="110" height="30" as="geometry" />
        </mxCell>
        <mxCell id="Zh2uDtDI1wgxRoAc3K7q-21" value="" style="rounded=0;whiteSpace=wrap;html=1;fillColor=#ffe6cc;strokeColor=#d79b00;" vertex="1" parent="1">
          <mxGeometry x="480" y="200" width="400" height="180" as="geometry" />
        </mxCell>
        <mxCell id="Zh2uDtDI1wgxRoAc3K7q-22" value="Dataplane" style="text;html=1;strokeColor=none;fillColor=none;align=center;verticalAlign=middle;whiteSpace=wrap;rounded=0;" vertex="1" parent="1">
          <mxGeometry x="475" y="390" width="80" height="30" as="geometry" />
        </mxCell>
        <mxCell id="Zh2uDtDI1wgxRoAc3K7q-23" value="Dataplane" style="text;html=1;strokeColor=none;fillColor=none;align=center;verticalAlign=middle;whiteSpace=wrap;rounded=0;" vertex="1" parent="1">
          <mxGeometry x="480" y="200" width="80" height="30" as="geometry" />
        </mxCell>
        <mxCell id="Zh2uDtDI1wgxRoAc3K7q-27" value="" style="edgeStyle=orthogonalEdgeStyle;rounded=0;orthogonalLoop=1;jettySize=auto;html=1;" edge="1" parent="1" source="Zh2uDtDI1wgxRoAc3K7q-25" target="Zh2uDtDI1wgxRoAc3K7q-12">
          <mxGeometry relative="1" as="geometry" />
        </mxCell>
        <mxCell id="Zh2uDtDI1wgxRoAc3K7q-63" value="ProprietÃ¤re API" style="edgeLabel;html=1;align=center;verticalAlign=middle;resizable=0;points=[];" vertex="1" connectable="0" parent="Zh2uDtDI1wgxRoAc3K7q-27">
          <mxGeometry x="-0.3786" relative="1" as="geometry">
            <mxPoint as="offset" />
          </mxGeometry>
        </mxCell>
        <mxCell id="Zh2uDtDI1wgxRoAc3K7q-25" value="" style="image;sketch=0;aspect=fixed;html=1;points=[];align=center;fontSize=12;image=img/lib/mscae/NetworkInterfaceCard.svg;" vertex="1" parent="1">
          <mxGeometry x="727" y="246.36" width="100" height="113.64" as="geometry" />
        </mxCell>
        <mxCell id="Zh2uDtDI1wgxRoAc3K7q-26" value="MGMT" style="html=1;verticalLabelPosition=bottom;verticalAlign=top;outlineConnect=0;shadow=0;dashed=0;shape=mxgraph.rack.hpe_aruba.switches.rj45_sfp;" vertex="1" parent="1">
          <mxGeometry x="830" y="320" width="40" height="30" as="geometry" />
        </mxCell>
        <mxCell id="Zh2uDtDI1wgxRoAc3K7q-30" value="Network OS&lt;br&gt;(eg. Cisco IOS)" style="rounded=0;whiteSpace=wrap;html=1;fillColor=#e1d5e7;strokeColor=#9673a6;" vertex="1" parent="1">
          <mxGeometry x="500" y="250" width="130" height="110" as="geometry" />
        </mxCell>
        <mxCell id="Zh2uDtDI1wgxRoAc3K7q-31" style="rounded=0;orthogonalLoop=1;jettySize=auto;html=1;exitX=1;exitY=0;exitDx=0;exitDy=0;entryX=0.003;entryY=0.006;entryDx=0;entryDy=0;entryPerimeter=0;strokeColor=none;" edge="1" parent="1" source="Zh2uDtDI1wgxRoAc3K7q-30" target="Zh2uDtDI1wgxRoAc3K7q-25">
          <mxGeometry relative="1" as="geometry" />
        </mxCell>
        <mxCell id="Zh2uDtDI1wgxRoAc3K7q-32" style="rounded=0;orthogonalLoop=1;jettySize=auto;html=1;exitX=1;exitY=0;exitDx=0;exitDy=0;entryX=0.02;entryY=0.011;entryDx=0;entryDy=0;entryPerimeter=0;endArrow=none;endFill=0;fillColor=#dae8fc;strokeColor=#6c8ebf;dashed=1;dashPattern=8 8;" edge="1" parent="1" source="Zh2uDtDI1wgxRoAc3K7q-30" target="Zh2uDtDI1wgxRoAc3K7q-25">
          <mxGeometry relative="1" as="geometry" />
        </mxCell>
        <mxCell id="Zh2uDtDI1wgxRoAc3K7q-33" style="rounded=0;orthogonalLoop=1;jettySize=auto;html=1;endArrow=none;endFill=0;fillColor=#dae8fc;strokeColor=#6c8ebf;dashed=1;dashPattern=8 8;exitX=1;exitY=1;exitDx=0;exitDy=0;entryX=0.009;entryY=0.992;entryDx=0;entryDy=0;entryPerimeter=0;" edge="1" parent="1" source="Zh2uDtDI1wgxRoAc3K7q-30" target="Zh2uDtDI1wgxRoAc3K7q-25">
          <mxGeometry relative="1" as="geometry">
            <mxPoint x="990" y="270" as="sourcePoint" />
            <mxPoint x="1020" y="180" as="targetPoint" />
          </mxGeometry>
        </mxCell>
        <mxCell id="Zh2uDtDI1wgxRoAc3K7q-34" value="" style="rounded=0;whiteSpace=wrap;html=1;fillColor=#f5f5f5;fontColor=#333333;strokeColor=#666666;" vertex="1" parent="1">
          <mxGeometry x="925" y="390" width="400" height="140" as="geometry" />
        </mxCell>
        <mxCell id="Zh2uDtDI1wgxRoAc3K7q-35" value="" style="html=1;verticalLabelPosition=bottom;verticalAlign=top;outlineConnect=0;shadow=0;dashed=0;shape=mxgraph.rack.hpe_aruba.switches.rj45_sfp;" vertex="1" parent="1">
          <mxGeometry x="945" y="480" width="40" height="30" as="geometry" />
        </mxCell>
        <mxCell id="Zh2uDtDI1wgxRoAc3K7q-36" value="" style="html=1;verticalLabelPosition=bottom;verticalAlign=top;outlineConnect=0;shadow=0;dashed=0;shape=mxgraph.rack.hpe_aruba.switches.rj45_sfp;" vertex="1" parent="1">
          <mxGeometry x="995" y="480" width="40" height="30" as="geometry" />
        </mxCell>
        <mxCell id="Zh2uDtDI1wgxRoAc3K7q-37" value="" style="html=1;verticalLabelPosition=bottom;verticalAlign=top;outlineConnect=0;shadow=0;dashed=0;shape=mxgraph.rack.hpe_aruba.switches.rj45_sfp;" vertex="1" parent="1">
          <mxGeometry x="1095" y="480" width="40" height="30" as="geometry" />
        </mxCell>
        <mxCell id="Zh2uDtDI1wgxRoAc3K7q-38" value="" style="html=1;verticalLabelPosition=bottom;verticalAlign=top;outlineConnect=0;shadow=0;dashed=0;shape=mxgraph.rack.hpe_aruba.switches.rj45_sfp;" vertex="1" parent="1">
          <mxGeometry x="1145" y="480" width="40" height="30" as="geometry" />
        </mxCell>
        <mxCell id="Zh2uDtDI1wgxRoAc3K7q-39" value="" style="html=1;verticalLabelPosition=bottom;verticalAlign=top;outlineConnect=0;shadow=0;dashed=0;shape=mxgraph.rack.hpe_aruba.switches.rj45_sfp;" vertex="1" parent="1">
          <mxGeometry x="1045" y="480" width="40" height="30" as="geometry" />
        </mxCell>
        <mxCell id="Zh2uDtDI1wgxRoAc3K7q-40" value="" style="edgeStyle=orthogonalEdgeStyle;rounded=0;orthogonalLoop=1;jettySize=auto;html=1;endArrow=none;endFill=0;" edge="1" parent="1" source="Zh2uDtDI1wgxRoAc3K7q-42" target="Zh2uDtDI1wgxRoAc3K7q-35">
          <mxGeometry relative="1" as="geometry" />
        </mxCell>
        <mxCell id="Zh2uDtDI1wgxRoAc3K7q-41" value="" style="edgeStyle=orthogonalEdgeStyle;rounded=0;orthogonalLoop=1;jettySize=auto;html=1;endArrow=none;endFill=0;" edge="1" parent="1" source="Zh2uDtDI1wgxRoAc3K7q-42" target="Zh2uDtDI1wgxRoAc3K7q-39">
          <mxGeometry relative="1" as="geometry" />
        </mxCell>
        <mxCell id="Zh2uDtDI1wgxRoAc3K7q-42" value="" style="sketch=0;pointerEvents=1;shadow=0;dashed=0;html=1;strokeColor=none;fillColor=#005F4B;labelPosition=center;verticalLabelPosition=bottom;verticalAlign=top;align=center;outlineConnect=0;shape=mxgraph.veeam2.cpu;" vertex="1" parent="1">
          <mxGeometry x="1195" y="400" width="54" height="50" as="geometry" />
        </mxCell>
        <mxCell id="Zh2uDtDI1wgxRoAc3K7q-43" value="" style="edgeStyle=orthogonalEdgeStyle;rounded=0;orthogonalLoop=1;jettySize=auto;html=1;endArrow=none;endFill=0;" edge="1" parent="1" source="Zh2uDtDI1wgxRoAc3K7q-42" target="Zh2uDtDI1wgxRoAc3K7q-37">
          <mxGeometry relative="1" as="geometry">
            <mxPoint x="1035" y="450" as="sourcePoint" />
            <mxPoint x="1075" y="490" as="targetPoint" />
          </mxGeometry>
        </mxCell>
        <mxCell id="Zh2uDtDI1wgxRoAc3K7q-44" value="" style="edgeStyle=orthogonalEdgeStyle;rounded=0;orthogonalLoop=1;jettySize=auto;html=1;endArrow=none;endFill=0;" edge="1" parent="1" source="Zh2uDtDI1wgxRoAc3K7q-42" target="Zh2uDtDI1wgxRoAc3K7q-36">
          <mxGeometry relative="1" as="geometry">
            <mxPoint x="1042" y="450" as="sourcePoint" />
            <mxPoint x="1075" y="490" as="targetPoint" />
          </mxGeometry>
        </mxCell>
        <mxCell id="Zh2uDtDI1wgxRoAc3K7q-45" value="" style="edgeStyle=orthogonalEdgeStyle;rounded=0;orthogonalLoop=1;jettySize=auto;html=1;endArrow=none;endFill=0;" edge="1" parent="1" source="Zh2uDtDI1wgxRoAc3K7q-42" target="Zh2uDtDI1wgxRoAc3K7q-38">
          <mxGeometry relative="1" as="geometry">
            <mxPoint x="1052" y="460" as="sourcePoint" />
            <mxPoint x="1085" y="500" as="targetPoint" />
          </mxGeometry>
        </mxCell>
        <mxCell id="Zh2uDtDI1wgxRoAc3K7q-46" value="ASIC with vendor specifiv Microcode" style="text;html=1;strokeColor=none;fillColor=none;align=center;verticalAlign=middle;whiteSpace=wrap;rounded=0;" vertex="1" parent="1">
          <mxGeometry x="1195" y="470" width="110" height="30" as="geometry" />
        </mxCell>
        <mxCell id="Zh2uDtDI1wgxRoAc3K7q-47" value="" style="rounded=0;whiteSpace=wrap;html=1;fillColor=#ffe6cc;strokeColor=#d79b00;" vertex="1" parent="1">
          <mxGeometry x="925" y="200" width="400" height="180" as="geometry" />
        </mxCell>
        <mxCell id="Zh2uDtDI1wgxRoAc3K7q-48" value="Dataplane" style="text;html=1;strokeColor=none;fillColor=none;align=center;verticalAlign=middle;whiteSpace=wrap;rounded=0;" vertex="1" parent="1">
          <mxGeometry x="920" y="390" width="80" height="30" as="geometry" />
        </mxCell>
        <mxCell id="Zh2uDtDI1wgxRoAc3K7q-49" value="Dataplane" style="text;html=1;strokeColor=none;fillColor=none;align=center;verticalAlign=middle;whiteSpace=wrap;rounded=0;" vertex="1" parent="1">
          <mxGeometry x="925" y="200" width="80" height="30" as="geometry" />
        </mxCell>
        <mxCell id="Zh2uDtDI1wgxRoAc3K7q-50" value="" style="edgeStyle=orthogonalEdgeStyle;rounded=0;orthogonalLoop=1;jettySize=auto;html=1;" edge="1" parent="1" source="Zh2uDtDI1wgxRoAc3K7q-51" target="Zh2uDtDI1wgxRoAc3K7q-42">
          <mxGeometry relative="1" as="geometry" />
        </mxCell>
        <mxCell id="Zh2uDtDI1wgxRoAc3K7q-64" value="Standard API" style="edgeLabel;html=1;align=center;verticalAlign=middle;resizable=0;points=[];" vertex="1" connectable="0" parent="Zh2uDtDI1wgxRoAc3K7q-50">
          <mxGeometry x="-0.3786" relative="1" as="geometry">
            <mxPoint as="offset" />
          </mxGeometry>
        </mxCell>
        <mxCell id="Zh2uDtDI1wgxRoAc3K7q-51" value="" style="image;sketch=0;aspect=fixed;html=1;points=[];align=center;fontSize=12;image=img/lib/mscae/NetworkInterfaceCard.svg;" vertex="1" parent="1">
          <mxGeometry x="1172" y="246.36" width="100" height="113.64" as="geometry" />
        </mxCell>
        <mxCell id="Zh2uDtDI1wgxRoAc3K7q-52" value="MGMT" style="html=1;verticalLabelPosition=bottom;verticalAlign=top;outlineConnect=0;shadow=0;dashed=0;shape=mxgraph.rack.hpe_aruba.switches.rj45_sfp;" vertex="1" parent="1">
          <mxGeometry x="1275" y="320" width="40" height="30" as="geometry" />
        </mxCell>
        <mxCell id="Zh2uDtDI1wgxRoAc3K7q-53" value="Linux" style="rounded=0;whiteSpace=wrap;html=1;fillColor=#e1d5e7;strokeColor=#9673a6;" vertex="1" parent="1">
          <mxGeometry x="950" y="250" width="130" height="110" as="geometry" />
        </mxCell>
        <mxCell id="Zh2uDtDI1wgxRoAc3K7q-54" style="rounded=0;orthogonalLoop=1;jettySize=auto;html=1;exitX=1;exitY=0;exitDx=0;exitDy=0;entryX=0.003;entryY=0.006;entryDx=0;entryDy=0;entryPerimeter=0;strokeColor=none;" edge="1" parent="1" source="Zh2uDtDI1wgxRoAc3K7q-53" target="Zh2uDtDI1wgxRoAc3K7q-51">
          <mxGeometry relative="1" as="geometry" />
        </mxCell>
        <mxCell id="Zh2uDtDI1wgxRoAc3K7q-55" style="rounded=0;orthogonalLoop=1;jettySize=auto;html=1;exitX=1;exitY=0;exitDx=0;exitDy=0;entryX=0.02;entryY=0.011;entryDx=0;entryDy=0;entryPerimeter=0;endArrow=none;endFill=0;fillColor=#dae8fc;strokeColor=#6c8ebf;dashed=1;dashPattern=8 8;" edge="1" parent="1" source="Zh2uDtDI1wgxRoAc3K7q-53" target="Zh2uDtDI1wgxRoAc3K7q-51">
          <mxGeometry relative="1" as="geometry" />
        </mxCell>
        <mxCell id="Zh2uDtDI1wgxRoAc3K7q-56" style="rounded=0;orthogonalLoop=1;jettySize=auto;html=1;endArrow=none;endFill=0;fillColor=#dae8fc;strokeColor=#6c8ebf;dashed=1;dashPattern=8 8;exitX=1;exitY=1;exitDx=0;exitDy=0;entryX=0.009;entryY=0.992;entryDx=0;entryDy=0;entryPerimeter=0;" edge="1" parent="1" source="Zh2uDtDI1wgxRoAc3K7q-53" target="Zh2uDtDI1wgxRoAc3K7q-51">
          <mxGeometry relative="1" as="geometry">
            <mxPoint x="1435" y="270" as="sourcePoint" />
            <mxPoint x="1465" y="180" as="targetPoint" />
          </mxGeometry>
        </mxCell>
        <mxCell id="Zh2uDtDI1wgxRoAc3K7q-57" value="&lt;font style=&quot;font-size: 8px;&quot;&gt;BGP&lt;/font&gt;" style="rounded=0;whiteSpace=wrap;html=1;fillColor=#C4BAC9;strokeColor=#9673a6;" vertex="1" parent="1">
          <mxGeometry x="950" y="250" width="35" height="20" as="geometry" />
        </mxCell>
        <mxCell id="Zh2uDtDI1wgxRoAc3K7q-58" value="&lt;font style=&quot;font-size: 8px;&quot;&gt;LACP&lt;/font&gt;" style="rounded=0;whiteSpace=wrap;html=1;fillColor=#C4BAC9;strokeColor=#9673a6;" vertex="1" parent="1">
          <mxGeometry x="995" y="250" width="35" height="20" as="geometry" />
        </mxCell>
        <mxCell id="Zh2uDtDI1wgxRoAc3K7q-59" value="..." style="rounded=0;whiteSpace=wrap;html=1;fillColor=#C4BAC9;strokeColor=#9673a6;" vertex="1" parent="1">
          <mxGeometry x="1035" y="250" width="35" height="20" as="geometry" />
        </mxCell>
        <mxCell id="Zh2uDtDI1wgxRoAc3K7q-60" value="&lt;font style=&quot;font-size: 8px;&quot;&gt;SAI&lt;/font&gt;" style="rounded=0;whiteSpace=wrap;html=1;fillColor=#C4BAC9;strokeColor=#9673a6;" vertex="1" parent="1">
          <mxGeometry x="950" y="340" width="35" height="20" as="geometry" />
        </mxCell>
        <mxCell id="Zh2uDtDI1wgxRoAc3K7q-61" value="&lt;font style=&quot;font-size: 8px;&quot;&gt;SwitchD&lt;/font&gt;" style="rounded=0;whiteSpace=wrap;html=1;fillColor=#C4BAC9;strokeColor=#9673a6;" vertex="1" parent="1">
          <mxGeometry x="995" y="340" width="35" height="20" as="geometry" />
        </mxCell>
        <mxCell id="Zh2uDtDI1wgxRoAc3K7q-62" value="&lt;font style=&quot;font-size: 8px;&quot;&gt;...&lt;/font&gt;" style="rounded=0;whiteSpace=wrap;html=1;fillColor=#C4BAC9;strokeColor=#9673a6;" vertex="1" parent="1">
          <mxGeometry x="1035" y="340" width="35" height="20" as="geometry" />
        </mxCell>
        <mxCell id="Zh2uDtDI1wgxRoAc3K7q-65" value="" style="rounded=0;whiteSpace=wrap;html=1;fillColor=#f5f5f5;fontColor=#333333;strokeColor=#666666;" vertex="1" parent="1">
          <mxGeometry x="1365" y="390" width="400" height="140" as="geometry" />
        </mxCell>
        <mxCell id="Zh2uDtDI1wgxRoAc3K7q-66" value="" style="html=1;verticalLabelPosition=bottom;verticalAlign=top;outlineConnect=0;shadow=0;dashed=0;shape=mxgraph.rack.hpe_aruba.switches.rj45_sfp;" vertex="1" parent="1">
          <mxGeometry x="1385" y="480" width="40" height="30" as="geometry" />
        </mxCell>
        <mxCell id="Zh2uDtDI1wgxRoAc3K7q-67" value="" style="html=1;verticalLabelPosition=bottom;verticalAlign=top;outlineConnect=0;shadow=0;dashed=0;shape=mxgraph.rack.hpe_aruba.switches.rj45_sfp;" vertex="1" parent="1">
          <mxGeometry x="1435" y="480" width="40" height="30" as="geometry" />
        </mxCell>
        <mxCell id="Zh2uDtDI1wgxRoAc3K7q-68" value="" style="html=1;verticalLabelPosition=bottom;verticalAlign=top;outlineConnect=0;shadow=0;dashed=0;shape=mxgraph.rack.hpe_aruba.switches.rj45_sfp;" vertex="1" parent="1">
          <mxGeometry x="1535" y="480" width="40" height="30" as="geometry" />
        </mxCell>
        <mxCell id="Zh2uDtDI1wgxRoAc3K7q-69" value="" style="html=1;verticalLabelPosition=bottom;verticalAlign=top;outlineConnect=0;shadow=0;dashed=0;shape=mxgraph.rack.hpe_aruba.switches.rj45_sfp;" vertex="1" parent="1">
          <mxGeometry x="1585" y="480" width="40" height="30" as="geometry" />
        </mxCell>
        <mxCell id="Zh2uDtDI1wgxRoAc3K7q-70" value="" style="html=1;verticalLabelPosition=bottom;verticalAlign=top;outlineConnect=0;shadow=0;dashed=0;shape=mxgraph.rack.hpe_aruba.switches.rj45_sfp;" vertex="1" parent="1">
          <mxGeometry x="1485" y="480" width="40" height="30" as="geometry" />
        </mxCell>
        <mxCell id="Zh2uDtDI1wgxRoAc3K7q-71" value="" style="edgeStyle=orthogonalEdgeStyle;rounded=0;orthogonalLoop=1;jettySize=auto;html=1;endArrow=none;endFill=0;" edge="1" parent="1" source="Zh2uDtDI1wgxRoAc3K7q-73" target="Zh2uDtDI1wgxRoAc3K7q-66">
          <mxGeometry relative="1" as="geometry" />
        </mxCell>
        <mxCell id="Zh2uDtDI1wgxRoAc3K7q-72" value="" style="edgeStyle=orthogonalEdgeStyle;rounded=0;orthogonalLoop=1;jettySize=auto;html=1;endArrow=none;endFill=0;" edge="1" parent="1" source="Zh2uDtDI1wgxRoAc3K7q-73" target="Zh2uDtDI1wgxRoAc3K7q-70">
          <mxGeometry relative="1" as="geometry" />
        </mxCell>
        <mxCell id="Zh2uDtDI1wgxRoAc3K7q-73" value="" style="sketch=0;pointerEvents=1;shadow=0;dashed=0;html=1;strokeColor=none;fillColor=#005F4B;labelPosition=center;verticalLabelPosition=bottom;verticalAlign=top;align=center;outlineConnect=0;shape=mxgraph.veeam2.cpu;" vertex="1" parent="1">
          <mxGeometry x="1635" y="400" width="54" height="50" as="geometry" />
        </mxCell>
        <mxCell id="Zh2uDtDI1wgxRoAc3K7q-74" value="" style="edgeStyle=orthogonalEdgeStyle;rounded=0;orthogonalLoop=1;jettySize=auto;html=1;endArrow=none;endFill=0;" edge="1" parent="1" source="Zh2uDtDI1wgxRoAc3K7q-73" target="Zh2uDtDI1wgxRoAc3K7q-68">
          <mxGeometry relative="1" as="geometry">
            <mxPoint x="1475" y="450" as="sourcePoint" />
            <mxPoint x="1515" y="490" as="targetPoint" />
          </mxGeometry>
        </mxCell>
        <mxCell id="Zh2uDtDI1wgxRoAc3K7q-75" value="" style="edgeStyle=orthogonalEdgeStyle;rounded=0;orthogonalLoop=1;jettySize=auto;html=1;endArrow=none;endFill=0;" edge="1" parent="1" source="Zh2uDtDI1wgxRoAc3K7q-73" target="Zh2uDtDI1wgxRoAc3K7q-67">
          <mxGeometry relative="1" as="geometry">
            <mxPoint x="1482" y="450" as="sourcePoint" />
            <mxPoint x="1515" y="490" as="targetPoint" />
          </mxGeometry>
        </mxCell>
        <mxCell id="Zh2uDtDI1wgxRoAc3K7q-76" value="" style="edgeStyle=orthogonalEdgeStyle;rounded=0;orthogonalLoop=1;jettySize=auto;html=1;endArrow=none;endFill=0;" edge="1" parent="1" source="Zh2uDtDI1wgxRoAc3K7q-73" target="Zh2uDtDI1wgxRoAc3K7q-69">
          <mxGeometry relative="1" as="geometry">
            <mxPoint x="1492" y="460" as="sourcePoint" />
            <mxPoint x="1525" y="500" as="targetPoint" />
          </mxGeometry>
        </mxCell>
        <mxCell id="Zh2uDtDI1wgxRoAc3K7q-77" value="P4 Programmable NPU" style="text;html=1;strokeColor=none;fillColor=none;align=center;verticalAlign=middle;whiteSpace=wrap;rounded=0;" vertex="1" parent="1">
          <mxGeometry x="1635" y="460" width="110" height="30" as="geometry" />
        </mxCell>
        <mxCell id="Zh2uDtDI1wgxRoAc3K7q-78" value="" style="rounded=0;whiteSpace=wrap;html=1;fillColor=#ffe6cc;strokeColor=#d79b00;" vertex="1" parent="1">
          <mxGeometry x="1365" y="200" width="400" height="180" as="geometry" />
        </mxCell>
        <mxCell id="Zh2uDtDI1wgxRoAc3K7q-79" value="Dataplane" style="text;html=1;strokeColor=none;fillColor=none;align=center;verticalAlign=middle;whiteSpace=wrap;rounded=0;" vertex="1" parent="1">
          <mxGeometry x="1360" y="390" width="80" height="30" as="geometry" />
        </mxCell>
        <mxCell id="Zh2uDtDI1wgxRoAc3K7q-80" value="Dataplane" style="text;html=1;strokeColor=none;fillColor=none;align=center;verticalAlign=middle;whiteSpace=wrap;rounded=0;" vertex="1" parent="1">
          <mxGeometry x="1365" y="200" width="80" height="30" as="geometry" />
        </mxCell>
        <mxCell id="Zh2uDtDI1wgxRoAc3K7q-81" value="" style="edgeStyle=orthogonalEdgeStyle;rounded=0;orthogonalLoop=1;jettySize=auto;html=1;" edge="1" parent="1" source="Zh2uDtDI1wgxRoAc3K7q-83" target="Zh2uDtDI1wgxRoAc3K7q-73">
          <mxGeometry relative="1" as="geometry" />
        </mxCell>
        <mxCell id="Zh2uDtDI1wgxRoAc3K7q-82" value="Standard API" style="edgeLabel;html=1;align=center;verticalAlign=middle;resizable=0;points=[];" vertex="1" connectable="0" parent="Zh2uDtDI1wgxRoAc3K7q-81">
          <mxGeometry x="-0.3786" relative="1" as="geometry">
            <mxPoint as="offset" />
          </mxGeometry>
        </mxCell>
        <mxCell id="Zh2uDtDI1wgxRoAc3K7q-83" value="" style="image;sketch=0;aspect=fixed;html=1;points=[];align=center;fontSize=12;image=img/lib/mscae/NetworkInterfaceCard.svg;" vertex="1" parent="1">
          <mxGeometry x="1612" y="246.36" width="100" height="113.64" as="geometry" />
        </mxCell>
        <mxCell id="Zh2uDtDI1wgxRoAc3K7q-84" value="MGMT" style="html=1;verticalLabelPosition=bottom;verticalAlign=top;outlineConnect=0;shadow=0;dashed=0;shape=mxgraph.rack.hpe_aruba.switches.rj45_sfp;" vertex="1" parent="1">
          <mxGeometry x="1715" y="320" width="40" height="30" as="geometry" />
        </mxCell>
        <mxCell id="Zh2uDtDI1wgxRoAc3K7q-85" value="Linux" style="rounded=0;whiteSpace=wrap;html=1;fillColor=#e1d5e7;strokeColor=#9673a6;" vertex="1" parent="1">
          <mxGeometry x="1390" y="250" width="130" height="110" as="geometry" />
        </mxCell>
        <mxCell id="Zh2uDtDI1wgxRoAc3K7q-86" style="rounded=0;orthogonalLoop=1;jettySize=auto;html=1;exitX=1;exitY=0;exitDx=0;exitDy=0;entryX=0.003;entryY=0.006;entryDx=0;entryDy=0;entryPerimeter=0;strokeColor=none;" edge="1" parent="1" source="Zh2uDtDI1wgxRoAc3K7q-85" target="Zh2uDtDI1wgxRoAc3K7q-83">
          <mxGeometry relative="1" as="geometry" />
        </mxCell>
        <mxCell id="Zh2uDtDI1wgxRoAc3K7q-87" style="rounded=0;orthogonalLoop=1;jettySize=auto;html=1;exitX=1;exitY=0;exitDx=0;exitDy=0;entryX=0.02;entryY=0.011;entryDx=0;entryDy=0;entryPerimeter=0;endArrow=none;endFill=0;fillColor=#dae8fc;strokeColor=#6c8ebf;dashed=1;dashPattern=8 8;" edge="1" parent="1" source="Zh2uDtDI1wgxRoAc3K7q-85" target="Zh2uDtDI1wgxRoAc3K7q-83">
          <mxGeometry relative="1" as="geometry" />
        </mxCell>
        <mxCell id="Zh2uDtDI1wgxRoAc3K7q-88" style="rounded=0;orthogonalLoop=1;jettySize=auto;html=1;endArrow=none;endFill=0;fillColor=#dae8fc;strokeColor=#6c8ebf;dashed=1;dashPattern=8 8;exitX=1;exitY=1;exitDx=0;exitDy=0;entryX=0.009;entryY=0.992;entryDx=0;entryDy=0;entryPerimeter=0;" edge="1" parent="1" source="Zh2uDtDI1wgxRoAc3K7q-85" target="Zh2uDtDI1wgxRoAc3K7q-83">
          <mxGeometry relative="1" as="geometry">
            <mxPoint x="1875" y="270" as="sourcePoint" />
            <mxPoint x="1905" y="180" as="targetPoint" />
          </mxGeometry>
        </mxCell>
        <mxCell id="Zh2uDtDI1wgxRoAc3K7q-89" value="&lt;font style=&quot;font-size: 8px;&quot;&gt;BGP&lt;/font&gt;" style="rounded=0;whiteSpace=wrap;html=1;fillColor=#C4BAC9;strokeColor=#9673a6;" vertex="1" parent="1">
          <mxGeometry x="1390" y="250" width="35" height="20" as="geometry" />
        </mxCell>
        <mxCell id="Zh2uDtDI1wgxRoAc3K7q-90" value="&lt;font style=&quot;font-size: 8px;&quot;&gt;LACP&lt;/font&gt;" style="rounded=0;whiteSpace=wrap;html=1;fillColor=#C4BAC9;strokeColor=#9673a6;" vertex="1" parent="1">
          <mxGeometry x="1435" y="250" width="35" height="20" as="geometry" />
        </mxCell>
        <mxCell id="Zh2uDtDI1wgxRoAc3K7q-91" value="..." style="rounded=0;whiteSpace=wrap;html=1;fillColor=#C4BAC9;strokeColor=#9673a6;" vertex="1" parent="1">
          <mxGeometry x="1475" y="250" width="35" height="20" as="geometry" />
        </mxCell>
        <mxCell id="Zh2uDtDI1wgxRoAc3K7q-93" value="&lt;font style=&quot;font-size: 8px;&quot;&gt;P4&lt;/font&gt;" style="rounded=0;whiteSpace=wrap;html=1;fillColor=#C4BAC9;strokeColor=#9673a6;" vertex="1" parent="1">
          <mxGeometry x="1435" y="340" width="35" height="20" as="geometry" />
        </mxCell>
        <mxCell id="Zh2uDtDI1wgxRoAc3K7q-97" value="" style="shape=image;verticalLabelPosition=bottom;labelBackgroundColor=default;verticalAlign=top;aspect=fixed;imageAspect=0;image=https://upload.wikimedia.org/wikipedia/commons/1/12/P4-programming-language-logo.png;" vertex="1" parent="1">
          <mxGeometry x="1642" y="405" width="40" height="40" as="geometry" />
        </mxCell>
        <mxCell id="Zh2uDtDI1wgxRoAc3K7q-100" value="" style="shape=flexArrow;endArrow=classic;html=1;rounded=0;width=32;endSize=2.857142857142857;endWidth=0;fillColor=#F8EDEC;gradientColor=#EA4944;strokeColor=#b85450;gradientDirection=west;movable=1;resizable=1;rotatable=1;deletable=1;editable=1;locked=0;connectable=1;" edge="1" parent="1">
          <mxGeometry width="50" height="50" relative="1" as="geometry">
            <mxPoint x="1770" y="560" as="sourcePoint" />
            <mxPoint x="920" y="560" as="targetPoint" />
          </mxGeometry>
        </mxCell>
        <mxCell id="Zh2uDtDI1wgxRoAc3K7q-103" value="&lt;font style=&quot;font-size: 18px;&quot;&gt;ProprietÃ¤r&lt;/font&gt;" style="text;html=1;strokeColor=none;fillColor=none;align=center;verticalAlign=middle;whiteSpace=wrap;rounded=0;" vertex="1" parent="1">
          <mxGeometry x="1280" y="540" width="110" height="45" as="geometry" />
        </mxCell>
      </root>
    </mxGraphModel>
  </diagram>
</mxfile>
